HIERARCHY
ROOT Hips
{
	OFFSET 0.00 0.00 0.00
	CHANNELS 6 Xposition Yposition Zposition Xrotation Yrotation Zrotation
	JOINT Spine
	{
		OFFSET 0.00000 1.92919 2.89379
		CHANNELS 3 Xrotation Yrotation Zrotation
		JOINT Spine1
		{
			OFFSET 0.00000 0.67000 3.79977
			CHANNELS 3 Xrotation Yrotation Zrotation
			JOINT Spine2
			{
				OFFSET 0.00000 0.33628 3.84370
				CHANNELS 3 Xrotation Yrotation Zrotation
				JOINT Spine3
				{
					OFFSET 0.00000 0.00000 3.85838
					CHANNELS 3 Xrotation Yrotation Zrotation
					JOINT Neck
					{
						OFFSET 0.00000 -1.44688 10.12826
						CHANNELS 3 Xrotation Yrotation Zrotation
						JOINT Head
						{
							OFFSET 0.00000 -0.92125 5.22468
							CHANNELS 3 Xrotation Yrotation Zrotation
							End Site
							{
								OFFSET 0.00000 0.00001 6.24576
							}
						}
					}
					JOINT RightShoulder
					{
						OFFSET -1.19724 -1.99539 6.46510
						CHANNELS 3 Xrotation Yrotation Zrotation
						JOINT RightArm
						{
							OFFSET -5.94629 0.00000 0.00000
							CHANNELS 3 Xrotation Yrotation Zrotation
							JOINT RightForeArm
							{
								OFFSET -11.02134 0.00000 0.00000
								CHANNELS 3 Xrotation Yrotation Zrotation
								JOINT RightHand
								{
									OFFSET -10.43440 0.00000 0.00000
									CHANNELS 3 Xrotation Yrotation Zrotation
									JOINT RightHandEnd
									{
										OFFSET -2.82937 0.00000 0.00000
										CHANNELS 3 Xrotation Yrotation Zrotation
										End Site
										{
											OFFSET -2.82937 0.00000 0.00000
										}
									}
									JOINT RightHandThumb1
									{
										OFFSET -1.13175 -1.88625 -0.75450
										CHANNELS 3 Yrotation Xrotation Zrotation
										End Site
										{
											OFFSET -2.73296 -0.73229 0.00000
										}
									}
								}
							}
						}
					}
					JOINT LeftShoulder
					{
						OFFSET 1.19724 -1.99539 6.46510
						CHANNELS 3 Xrotation Yrotation Zrotation
						JOINT LeftArm
						{
							OFFSET 5.94629 0.00000 0.00000
							CHANNELS 3 Xrotation Yrotation Zrotation
							JOINT LeftForeArm
							{
								OFFSET 11.02134 0.00000 0.00000
								CHANNELS 3 Xrotation Yrotation Zrotation
								JOINT LeftHand
								{
									OFFSET 10.43440 0.00000 0.00000
									CHANNELS 3 Xrotation Yrotation Zrotation
									JOINT LeftHandEnd
									{
										OFFSET 2.82937 0.00000 0.00000
										CHANNELS 3 Xrotation Yrotation Zrotation
										End Site
										{
											OFFSET 2.82937 0.00000 0.00000
										}
									}
									JOINT LeftHandThumb1
									{
										OFFSET 1.13175 -1.88625 -0.75450
										CHANNELS 3 Yrotation Xrotation Zrotation
										End Site
										{
											OFFSET 2.73296 -0.73229 0.00000
										}
									}
								}
							}
						}
					}
				}
			}
		}
	}
	JOINT RightUpLeg
	{
		OFFSET -3.55181 0.00000 -1.03761
		CHANNELS 3 Xrotation Yrotation Zrotation
		JOINT RightLeg
		{
			OFFSET 0.00001 0.00000 -15.86106
			CHANNELS 3 Xrotation Yrotation Zrotation
			JOINT RightFoot
			{
				OFFSET 0.00001 0.00000 -16.30493
				CHANNELS 3 Xrotation Yrotation Zrotation
				JOINT RightToeBase
				{
					OFFSET 0.00000 -5.76215 -2.09725
					CHANNELS 3 Xrotation Yrotation Zrotation
					End Site
					{
						OFFSET 0.00000 -2.87338 -0.00000
					}
				}
			}
		}
	}
	JOINT LeftUpLeg
	{
		OFFSET 3.55181 0.00000 -1.03761
		CHANNELS 3 Xrotation Yrotation Zrotation
		JOINT LeftLeg
		{
			OFFSET 0.00001 0.00000 -15.86106
			CHANNELS 3 Xrotation Yrotation Zrotation
			JOINT LeftFoot
			{
				OFFSET 0.00001 0.00000 -16.30493
				CHANNELS 3 Xrotation Yrotation Zrotation
				JOINT LeftToeBase
				{
					OFFSET 0.00000 -5.76215 -2.09725
					CHANNELS 3 Xrotation Yrotation Zrotation
					End Site
					{
						OFFSET 0.00000 -2.87338 -0.00000
					}
				}
			}
		}
	}
}
MOTION
Frames: 18
Frame Time: 0.008342
 -20.7166 -16.1415 36.0728 3.0942 -3.8025 91.9103 0.1293 2.7734 0.4731 -1.0269 0.0760 0.0058 6.6181 0.0247 -0.1167 3.0610 -0.3080 -0.0700 11.2962 1.7514 6.7471 -1.8226 4.9088 13.1194 3.3888 6.9721 -5.4524 -7.8835 -27.2553 9.3268 0.0000 0.0000 1.4120 -22.0964 8.2448 -2.6620 0.0000 0.0000 -0.0000 0.0000 0.0000 0.0000 1.8248 -6.0711 7.5983 24.3606 5.2144 -21.9462 -0.0000 -0.0000 -0.8042 -24.1520 -58.4216 -26.9534 0.0000 0.0000 -0.0000 0.0000 0.0000 0.0000 5.0395 0.6995 -32.8711 6.8283 0.0000 0.0000 -7.9739 0.7317 -0.0999 -1.5799 0.0000 -0.0000 2.8013 4.9817 29.8258 9.4479 0.0000 0.0000 -2.9323 -0.9000 -2.3705 -10.0625 0.0000 -0.0000
 -20.7166 -16.1422 36.0731 3.0968 -3.8005 91.8973 0.1265 2.7737 0.4749 -1.0295 0.0737 0.0049 6.6273 0.0284 -0.1130 3.0617 -0.3069 -0.0717 11.2823 1.7590 6.7557 -1.8294 4.9148 13.1284 3.3932 6.9808 -5.4495 -7.8883 -27.2650 9.3307 0.0000 0.0000 1.4099 -22.0992 8.2478 -2.6616 0.0000 -0.0000 0.0000 -0.0000 0.0000 0.0000 1.8369 -6.0486 7.6129 24.4173 5.1347 -21.9680 -0.0000 -0.0000 -0.8111 -23.7560 -58.4734 -26.5622 -0.0000 -0.0000 0.0000 0.0000 -0.0000 0.0000 5.0403 0.7002 -32.8703 6.8197 0.0000 0.0000 -7.9722 0.7314 -0.0899 -1.5791 0.0000 -0.0000 2.8092 4.9895 29.8278 9.4256 0.0000 0.0000 -2.9222 -0.8974 -2.3632 -10.0608 0.0000 -0.0000
 -20.7166 -16.1430 36.0733 3.1020 -3.7967 91.8807 0.1219 2.7748 0.4765 -1.0326 0.0720 0.0046 6.6381 0.0331 -0.1087 3.0626 -0.3059 -0.0738 11.2653 1.7688 6.7666 -1.8367 4.9238 13.1383 3.3985 6.9915 -5.4454 -7.8922 -27.2764 9.3386 0.0000 0.0000 1.4036 -22.1058 8.2465 -2.6618 0.0000 -0.0000 -0.0000 -0.0000 0.0000 0.0000 1.8515 -6.0222 7.6305 24.4714 5.0457 -21.9951 -0.0000 -0.0000 -0.8187 -23.2711 -58.5118 -26.0610 0.0000 -0.0000 0.0000 0.0000 0.0000 0.0000 5.0395 0.7036 -32.8706 6.8101 0.0000 0.0000 -7.9715 0.7330 -0.0756 -1.5776 0.0000 -0.0000 2.8185 5.0018 29.8329 9.3960 0.0000 0.0000 -2.9081 -0.8948 -2.3565 -10.0630 0.0000 -0.0000
 -20.7167 -16.1440 36.0736 3.1086 -3.7912 91.8610 0.1154 2.7762 0.4784 -1.0366 0.0701 0.0043 6.6512 0.0382 -0.1038 3.0637 -0.3047 -0.0765 11.2463 1.7813 6.7792 -1.8446 4.9353 13.1484 3.4043 7.0060 -5.4412 -7.8985 -27.2921 9.3486 0.0000 0.0000 1.3940 -22.1117 8.2403 -2.6642 -0.0000 -0.0000 -0.0000 -0.0000 -0.0000 0.0000 1.8685 -5.9923 7.6495 24.5168 4.9518 -22.0266 -0.0000 -0.0000 -0.8258 -22.7076 -58.5254 -25.4518 0.0000 0.0000 -0.0000 0.0000 -0.0000 -0.0000 5.0373 0.7082 -32.8710 6.7987 0.0000 0.0000 -7.9708 0.7361 -0.0584 -1.5757 0.0000 -0.0000 2.8286 5.0175 29.8374 9.3599 0.0000 0.0000 -2.8907 -0.8930 -2.3470 -10.0692 0.0000 -0.0000
 -20.7169 -16.1451 36.0738 3.1162 -3.7836 91.8390 0.1067 2.7776 0.4818 -1.0404 0.0676 0.0039 6.6651 0.0445 -0.0992 3.0651 -0.3020 -0.0806 11.2260 1.7935 6.7931 -1.8528 4.9500 13.1590 3.4092 7.0195 -5.4359 -7.9029 -27.3077 9.3622 0.0000 0.0000 1.3809 -22.1196 8.2279 -2.6707 0.0000 -0.0000 -0.0000 -0.0000 -0.0000 0.0000 1.8857 -5.9624 7.6699 24.5516 4.8583 -22.0639 -0.0000 -0.0000 -0.8293 -22.0942 -58.4989 -24.7570 0.0000 -0.0000 -0.0000 -0.0000 0.0000 -0.0000 5.0334 0.7137 -32.8726 6.7854 0.0000 0.0000 -7.9696 0.7406 -0.0378 -1.5733 0.0000 -0.0000 2.8383 5.0350 29.8475 9.3196 0.0000 0.0000 -2.8711 -0.8919 -2.3416 -10.0791 0.0000 -0.0000
 -20.7173 -16.1465 36.0740 3.1246 -3.7738 91.8160 0.0978 2.7790 0.4836 -1.0480 0.0650 0.0039 6.6815 0.0506 -0.0937 3.0667 -0.3004 -0.0836 11.2056 1.8097 6.8072 -1.8615 4.9658 13.1679 3.4143 7.0383 -5.4324 -7.9110 -27.3284 9.3753 0.0000 0.0000 1.3666 -22.1265 8.2087 -2.6796 -0.0000 -0.0000 -0.0000 0.0000 -0.0000 -0.0000 1.9004 -5.9308 7.6846 24.5683 4.7736 -22.0999 -0.0000 -0.0000 -0.8309 -21.4457 -58.4235 -23.9914 -0.0000 -0.0000 -0.0000 0.0000 -0.0000 0.0000 5.0281 0.7191 -32.8736 6.7695 0.0000 0.0000 -7.9675 0.7467 -0.0165 -1.5710 0.0000 -0.0000 2.8468 5.0544 29.8550 9.2762 0.0000 0.0000 -2.8497 -0.8919 -2.3325 -10.0919 0.0000 -0.0000
 -20.7178 -16.1479 36.0742 3.1333 -3.7624 91.7916 0.0861 2.7798 0.4867 -1.0537 0.0624 0.0036 6.6974 0.0569 -0.0884 3.0686 -0.2973 -0.0886 11.1864 1.8249 6.8230 -1.8715 4.9836 13.1760 3.4188 7.0549 -5.4275 -7.9179 -27.3477 9.3917 0.0000 0.0000 1.3507 -22.1335 8.1825 -2.6955 0.0000 0.0000 -0.0000 0.0000 -0.0000 -0.0000 1.9150 -5.9034 7.7015 24.5641 4.7022 -22.1427 -0.0000 -0.0000 -0.8244 -20.7984 -58.2867 -23.1895 -0.0000 -0.0000 -0.0000 0.0000 0.0000 0.0000 5.0214 0.7245 -32.8736 6.7524 0.0000 0.0000 -7.9645 0.7538 0.0053 -1.5684 0.0000 -0.0000 2.8551 5.0746 29.8694 9.2297 0.0000 0.0000 -2.8271 -0.8928 -2.3288 -10.1064 0.0000 -0.0000
 -20.7183 -16.1495 36.0743 3.1422 -3.7497 91.7684 0.0746 2.7805 0.4894 -1.0605 0.0594 0.0028 6.7123 0.0631 -0.0838 3.0708 -0.2938 -0.0934 11.1698 1.8400 6.8387 -1.8824 5.0021 13.1828 3.4223 7.0700 -5.4228 -7.9260 -27.3657 9.4071 0.0000 0.0000 1.3349 -22.1391 8.1482 -2.7137 0.0000 -0.0000 -0.0000 -0.0000 -0.0000 0.0000 1.9255 -5.8809 7.7129 24.5404 4.6508 -22.1854 -0.0000 -0.0000 -0.8113 -20.1733 -58.0887 -22.3735 0.0000 -0.0000 -0.0000 -0.0000 -0.0000 0.0000 5.0141 0.7295 -32.8771 6.7333 0.0000 0.0000 -7.9607 0.7617 0.0301 -1.5655 0.0000 -0.0000 2.8618 5.0948 29.8856 9.1831 0.0000 0.0000 -2.8044 -0.8943 -2.3273 -10.1211 0.0000 -0.0000
 -20.7188 -16.1511 36.0745 3.1506 -3.7364 91.7456 0.0616 2.7803 0.4930 -1.0656 0.0569 0.0022 6.7257 0.0687 -0.0799 3.0735 -0.2895 -0.0995 11.1556 1.8544 6.8534 -1.8946 5.0202 13.1898 3.4253 7.0820 -5.4180 -7.9334 -27.3805 9.4237 0.0000 0.0000 1.3194 -22.1449 8.1068 -2.7345 0.0000 -0.0000 -0.0000 0.0000 -0.0000 -0.0000 1.9339 -5.8660 7.7221 24.4973 4.6223 -22.2319 -0.0000 -0.0000 -0.7874 -19.5962 -57.8281 -21.5733 -0.0000 0.0000 -0.0000 -0.0000 0.0000 0.0000 5.0070 0.7333 -32.8799 6.7124 0.0000 0.0000 -7.9553 0.7695 0.0543 -1.5629 0.0000 -0.0000 2.8688 5.1142 29.9087 9.1352 0.0000 0.0000 -2.7816 -0.8962 -2.3323 -10.1345 0.0000 -0.0000
 -20.7195 -16.1526 36.0748 3.1599 -3.7210 91.7252 0.0487 2.7811 0.4954 -1.0741 0.0549 0.0017 6.7402 0.0730 -0.0761 3.0758 -0.2862 -0.1049 11.1452 1.8705 6.8672 -1.9084 5.0360 13.1943 3.4262 7.0931 -5.4144 -7.9393 -27.3933 9.4377 0.0000 0.0000 1.3080 -22.1495 8.0629 -2.7579 0.0000 -0.0000 0.0000 -0.0000 -0.0000 0.0000 1.9359 -5.8564 7.7213 24.4399 4.6195 -22.2738 -0.0000 -0.0000 -0.7541 -19.0905 -57.5111 -20.8206 -0.0000 -0.0000 -0.0000 0.0000 -0.0000 -0.0000 4.9977 0.7380 -32.8860 6.6916 0.0000 0.0000 -7.9500 0.7784 0.0802 -1.5598 0.0000 -0.0000 2.8730 5.1348 29.9296 9.0875 0.0000 0.0000 -2.7585 -0.8979 -2.3360 -10.1448 0.0000 -0.0000
 -20.7200 -16.1544 36.0751 3.1663 -3.7062 91.7073 0.0357 2.7799 0.4989 -1.0792 0.0522 0.0009 6.7504 0.0769 -0.0751 3.0791 -0.2818 -0.1110 11.1390 1.8835 6.8819 -1.9247 5.0513 13.1971 3.4286 7.0983 -5.4114 -7.9452 -27.4010 9.4526 0.0000 0.0000 1.2997 -22.1523 8.0173 -2.7830 0.0000 0.0000 0.0000 0.0000 0.0000 0.0000 1.9341 -5.8586 7.7165 24.3724 4.6445 -22.3167 -0.0000 -0.0000 -0.7094 -18.6570 -57.1498 -20.1236 0.0000 -0.0000 -0.0000 -0.0000 0.0000 -0.0000 4.9908 0.7381 -32.8917 6.6673 0.0000 0.0000 -7.9414 0.7849 0.1039 -1.5578 0.0000 -0.0000 2.8775 5.1507 29.9588 9.0420 0.0000 0.0000 -2.7376 -0.8998 -2.3492 -10.1509 0.0000 -0.0000
 -20.7206 -16.1561 36.0755 3.1726 -3.6905 91.6920 0.0224 2.7793 0.5019 -1.0849 0.0501 0.0001 6.7600 0.0792 -0.0751 3.0821 -0.2777 -0.1168 11.1362 1.8965 6.8943 -1.9431 5.0635 13.2007 3.4296 7.0996 -5.4085 -7.9502 -27.4037 9.4640 0.0000 0.0000 1.2972 -22.1538 7.9718 -2.8070 0.0000 0.0000 0.0000 -0.0000 0.0000 0.0000 1.9285 -5.8692 7.7048 24.2998 4.6948 -22.3567 -0.0000 -0.0000 -0.6542 -18.3070 -56.7564 -19.5035 -0.0000 0.0000 0.0000 0.0000 0.0000 0.0000 4.9835 0.7379 -32.9006 6.6422 0.0000 0.0000 -7.9322 0.7907 0.1290 -1.5557 0.0000 -0.0000 2.8810 5.1662 29.9898 8.9965 0.0000 0.0000 -2.7168 -0.9008 -2.3655 -10.1520 0.0000 -0.0000
 -20.7210 -16.1580 36.0760 3.1765 -3.6761 91.6803 0.0119 2.7775 0.5041 -1.0915 0.0481 -0.0001 6.7683 0.0802 -0.0777 3.0851 -0.2739 -0.1221 11.1371 1.9079 6.9056 -1.9638 5.0739 13.2038 3.4318 7.0959 -5.4077 -7.9525 -27.4007 9.4756 0.0000 0.0000 1.3002 -22.1574 7.9298 -2.8286 -0.0000 -0.0000 -0.0000 -0.0000 0.0000 0.0000 1.9190 -5.8898 7.6841 24.2296 4.7703 -22.3905 -0.0000 -0.0000 -0.5904 -18.0377 -56.3482 -18.9668 -0.0000 0.0000 0.0000 0.0000 -0.0000 0.0000 4.9802 0.7331 -32.9117 6.6125 0.0000 0.0000 -7.9195 0.7937 0.1533 -1.5553 0.0000 -0.0000 2.8852 5.1773 30.0249 8.9539 0.0000 0.0000 -2.6982 -0.9014 -2.3886 -10.1477 0.0000 -0.0000
 -20.7214 -16.1598 36.0766 3.1803 -3.6610 91.6710 0.0008 2.7766 0.5067 -1.0969 0.0470 -0.0008 6.7748 0.0796 -0.0817 3.0884 -0.2705 -0.1274 11.1403 1.9188 6.9163 -1.9866 5.0822 13.2070 3.4343 7.0887 -5.4074 -7.9547 -27.3935 9.4845 0.0000 0.0000 1.3092 -22.1586 7.8941 -2.8469 -0.0000 0.0000 -0.0000 0.0000 0.0000 0.0000 1.9074 -5.9186 7.6582 24.1664 4.8661 -22.4206 -0.0000 -0.0000 -0.5183 -17.8365 -55.9413 -18.5092 0.0000 0.0000 -0.0000 -0.0000 0.0000 -0.0000 4.9767 0.7282 -32.9254 6.5824 0.0000 0.0000 -7.9064 0.7954 0.1786 -1.5552 0.0000 -0.0000 2.8895 5.1887 30.0607 8.9097 0.0000 0.0000 -2.6788 -0.9012 -2.4140 -10.1388 0.0000 -0.0000
 -20.7217 -16.1617 36.0773 3.1832 -3.6458 91.6642 -0.0083 2.7759 0.5087 -1.1033 0.0463 -0.0013 6.7793 0.0775 -0.0878 3.0925 -0.2680 -0.1323 11.1447 1.9291 6.9264 -2.0110 5.0888 13.2107 3.4377 7.0784 -5.4082 -7.9560 -27.3828 9.4918 0.0000 0.0000 1.3241 -22.1612 7.8665 -2.8598 -0.0000 -0.0000 -0.0000 -0.0000 -0.0000 0.0000 1.8937 -5.9553 7.6265 24.1152 4.9797 -22.4447 -0.0000 -0.0000 -0.4412 -17.6918 -55.5519 -18.1274 0.0000 0.0000 0.0000 0.0000 -0.0000 0.0000 4.9747 0.7213 -32.9418 6.5495 0.0000 0.0000 -7.8914 0.7952 0.2046 -1.5564 0.0000 -0.0000 2.8938 5.1982 30.0976 8.8659 0.0000 0.0000 -2.6598 -0.9001 -2.4427 -10.1260 0.0000 -0.0000
 -20.7219 -16.1636 36.0781 3.1855 -3.6301 91.6587 -0.0185 2.7756 0.5110 -1.1088 0.0461 -0.0019 6.7844 0.0740 -0.0957 3.0959 -0.2659 -0.1368 11.1493 1.9388 6.9357 -2.0366 5.0946 13.2156 3.4418 7.0655 -5.4100 -7.9572 -27.3688 9.4979 0.0000 0.0000 1.3435 -22.1633 7.8477 -2.8675 0.0000 0.0000 -0.0000 -0.0000 -0.0000 0.0000 1.8809 -5.9977 7.5909 24.0761 5.1065 -22.4626 -0.0000 -0.0000 -0.3615 -17.5880 -55.1941 -17.8108 -0.0000 -0.0000 0.0000 0.0000 -0.0000 -0.0000 4.9733 0.7134 -32.9596 6.5148 0.0000 0.0000 -7.8751 0.7934 0.2310 -1.5589 0.0000 -0.0000 2.8985 5.2073 30.1344 8.8207 0.0000 0.0000 -2.6401 -0.8988 -2.4731 -10.1105 0.0000 -0.0000
 -20.7221 -16.1655 36.0789 3.1876 -3.6135 91.6537 -0.0302 2.7758 0.5139 -1.1136 0.0465 -0.0024 6.7908 0.0693 -0.1053 3.0983 -0.2642 -0.1408 11.1532 1.9478 6.9443 -2.0622 5.1007 13.2219 3.4473 7.0510 -5.4126 -7.9589 -27.3530 9.5029 0.0000 0.0000 1.3667 -22.1657 7.8381 -2.8696 0.0000 0.0000 -0.0000 0.0000 -0.0000 -0.0000 1.8709 -6.0438 7.5527 24.0493 5.2422 -22.4738 -0.0000 -0.0000 -0.2824 -17.5094 -54.8787 -17.5453 -0.0000 -0.0000 -0.0000 0.0000 -0.0000 -0.0000 4.9722 0.7046 -32.9783 6.4782 0.0000 0.0000 -7.8574 0.7903 0.2579 -1.5628 0.0000 -0.0000 2.9033 5.2165 30.1710 8.7736 0.0000 0.0000 -2.6195 -0.8974 -2.5045 -10.0939 0.0000 -0.0000
 -20.7222 -16.1675 36.0797 3.1897 -3.5954 91.6487 -0.0413 2.7766 0.5165 -1.1185 0.0478 -0.0030 6.7945 0.0637 -0.1162 3.1022 -0.2641 -0.1443 11.1549 1.9574 6.9532 -2.0865 5.1072 13.2290 3.4522 7.0368 -5.4159 -7.9588 -27.3368 9.5078 0.0000 0.0000 1.3920 -22.1697 7.8383 -2.8671 0.0000 0.0000 -0.0000 -0.0000 -0.0000 -0.0000 1.8614 -6.0919 7.5136 24.0346 5.3852 -22.4783 -0.0000 -0.0000 -0.2071 -17.4437 -54.6131 -17.3191 0.0000 -0.0000 -0.0000 -0.0000 -0.0000 0.0000 4.9703 0.6956 -32.9986 6.4397 0.0000 0.0000 -7.8389 0.7869 0.2865 -1.5680 0.0000 -0.0000 2.9071 5.2259 30.2071 8.7255 0.0000 0.0000 -2.5980 -0.8963 -2.5366 -10.0777 0.0000 -0.0000
